<svg xmlns="http://www.w3.org/2000/svg" width="64" height="64" xml:space="preserve"><path fill-rule="evenodd" clip-rule="evenodd" fill="#DD4B39" d="M62.043 31.998c0 .002 0 .002-.002.002H60a6 6 0 0 0-6 6v2a2 2 0 1 1-4 0v-2c0-5.522 4.478-10 10-10h2a2 2 0 0 1 .043 3.998zM44 32h-2a2 2 0 0 1-.043-3.998c0-.002 0-.002.002-.002H44a6 6 0 0 0 6-6v-2a2 2 0 1 1 4 0v2c0 5.522-4.478 10-10 10zM18 48C8.058 48 0 39.941 0 30s8.058-18 18-18c1.447 0 2.844.194 4.191.519a1.993 1.993 0 1 1-.7 3.908l-.008.026A13.995 13.995 0 0 0 18 16c-7.731 0-14 6.27-14 14s6.269 14 14 14c6.703 0 12.284-4.72 13.653-11.014a.998.998 0 0 0-.996-.986H18a2 2 0 1 1 0-4h12.657c2.761 0 5 2.237 5 4.999 0 .356-.054.695-.124 1.027C33.699 42.026 26.555 48 18 48zm12-28a2 2 0 1 1-.001-3.999A2 2 0 0 1 30 20z"/></svg>