<svg xmlns="http://www.w3.org/2000/svg" viewBox="0 0 64 64"><defs><style>.cls-2{fill:#082648}.cls-3{fill:#95d6ef}.cls-6,.cls-7{fill:none;stroke:#000;stroke-miterlimit:10;stroke-width:2px}.cls-7{stroke-linecap:round}</style></defs><g style="isolation:isolate"><g id="Layer_3" data-name="Layer 3"><g id="Vector"><path class="cls-2" d="M13.49 41.58v3.73a4.31 4.31 0 0 1-4.31 4.3H5.73a3.11 3.11 0 0 1-3.09-3.53l.6-4.5 1-7.67 1-7.68 1.57-11.46C8 7.66 13.47 1.41 20.36 1.23h1.3a7.49 7.49 0 0 0-.4 2.42c0 4.88 4.81 8.85 10.74 8.85s10.74-4 10.74-8.85a7.49 7.49 0 0 0-.4-2.42h1.3c6.89.18 12.36 6.43 13.55 13.54l1.52 11.46 1 7.68 1 7.67.6 4.5a3.11 3.11 0 0 1-3.09 3.53h-3.4a4.31 4.31 0 0 1-4.31-4.3v-3.73"/><path class="cls-2" d="M13.49 41.58v17a4.22 4.22 0 0 0 4.22 4.22h28.58a4.22 4.22 0 0 0 4.22-4.22v-17"/><path class="cls-3" d="M42.74 3.65c0 4.88-4.81 8.85-10.74 8.85s-10.74-4-10.74-8.85a7.49 7.49 0 0 1 .4-2.42h20.68a7.49 7.49 0 0 1 .4 2.42z"/><path style="fill:#fff" d="M13.49 33.91h37.02v7.68H13.49z"/><path class="cls-3" d="M13.49 26.23h37.02v7.68H13.49z"/><path d="M38.87 3.43c0 3.12-3.08 5.66-6.87 5.66s-6.87-2.54-6.87-5.66a5 5 0 0 1 .26-1.55h13.22a5 5 0 0 1 .26 1.55z" style="fill:#1498c1"/></g><g id="Line"><path class="cls-6" d="m4.27 33.91 1-7.68 1.54-11.46C8 7.66 13.47 1.41 20.36 1.23h1.3a7.49 7.49 0 0 0-.4 2.42c0 4.88 4.81 8.85 10.74 8.85s10.74-4 10.74-8.85a7.49 7.49 0 0 0-.4-2.42h1.3c6.89.18 12.36 6.43 13.55 13.54l1.52 11.46 1 7.68 1 7.67.6 4.5a3.11 3.11 0 0 1-3.09 3.53h-3.4a4.31 4.31 0 0 1-4.31-4.3v-3.73M13.49 41.58v3.73a4.31 4.31 0 0 1-4.31 4.3H5.73a3.11 3.11 0 0 1-3.09-3.53l.6-4.5.61-4.58"/><path class="cls-7" d="M13.49 26.23v-7.19"/><path class="cls-6" d="M34 62.77h12.29a4.22 4.22 0 0 0 4.22-4.22v-17M13.49 41.58v17a4.22 4.22 0 0 0 4.22 4.22H29"/><path class="cls-7" d="M50.51 26.23v-7.19"/><path class="cls-6" d="M42.74 3.65c0 4.88-4.81 8.85-10.74 8.85s-10.74-4-10.74-8.85a7.49 7.49 0 0 1 .4-2.42h20.68a7.49 7.49 0 0 1 .4 2.42zM13.49 33.91h37.02v7.68H13.49zM13.49 26.23h37.02v7.68H13.49z"/><path class="cls-6" d="M38.87 3.43c0 3.12-3.08 5.66-6.87 5.66s-6.87-2.54-6.87-5.66a5 5 0 0 1 .26-1.55h13.22a5 5 0 0 1 .26 1.55z"/></g><path d="m60.76 41.58-1-7.67-1-7.68-1.57-11.46C56 7.66 50.53 1.41 43.64 1.23h-4.48l1.53 24.64a55.67 55.67 0 0 1-.12 11.83 18.59 18.59 0 0 1-4.93 10.54c-5 4.91-12.88 5.31-19.84 4.44-.76-.09-1.54-.19-2.31-.25v6.12a4.22 4.22 0 0 0 4.22 4.22h28.58a4.22 4.22 0 0 0 4.22-4.22V45.31a4.31 4.31 0 0 0 4.31 4.3h3.45a3.11 3.11 0 0 0 3.09-3.53z" style="opacity:.19;mix-blend-mode:multiply" id="Shadow"/><path d="M13.86 40.59V27h6.67l.07-.7a24.61 24.61 0 0 1-1.24-23.4 12.31 12.31 0 0 1 1.13-1.65h-.13C13.47 1.41 8 7.66 6.81 14.77L5.29 26.23l-1 7.68-1 7.67-.6 4.5a3.11 3.11 0 0 0 3.09 3.53h3.4a4.31 4.31 0 0 0 4.31-4.3v13.24a4.22 4.22 0 0 0 4.22 4.22h.23c.06-.62.09-1.26.12-1.89q.42-9.54.86-19.09l.13-1.2z" style="mix-blend-mode:overlay;fill:#fff" id="Highlight"/></g></g></svg>