<svg version="1.1" id="shopping_x5F_carts_1_" xmlns="http://www.w3.org/2000/svg" x="0" y="0" viewBox="0 0 128 128" style="enable-background:new 0 0 128 128" xml:space="preserve"><style>.st0{display:none}.st1{display:inline}.st2{fill:#020202}</style><g id="_x31_0_1_"><path class="st2" d="m93.8 55.7-4.7-10.6-4.5 10.4L89.3 66l4.5-10.3zm6.2-14.1L95.3 31l-4.6 10.5L95.4 52l4.6-10.4zM87.6 69.8l-4.7-10.6-4.8 11h9.4l.1-.4zm12.4.1-4.7-10.6-4.8 11h9.4l.1-.4zm11.5-30.6-3.8-8.4-4.6 10.5 4.1 9.2 4.3-11.3zm-24 2.2-4.7-10.6-4.6 10.5L82.9 52l4.6-10.5zm23.3 24.6-3.4-7.6-4.4 11.7h6.2l1.6-4.1zm-5-11.5-4.2-9.5L97 55.5l4.6 10.3 4.2-11.2zm10.8-3.9-3.4-7.6-4.2 11.3 3.4 7.6 4.2-11.3zm-76-11.3 4.6 10.7 4.5-9.5-4.6-10.3-4.5 9.1zm15.8 16.1-5.1-11.3-4.5 9.6 5.1 11.8 4.5-10.1zm61.8-9 9.8-26.2h-6.2l-7 18.7 3.4 7.5zm-55.7-5-4.9-10.9L53 40.7l5 11.1 4.5-10.3zm12.7 28.2-4.7-10.6L66 69.3v.1h-.1l-.3.8H75l.2-.5zM75 41.5l-4.7-10.6-4.6 10.5 4.8 10.5L75 41.5zm6.3 14.2L76.6 45 72 55.4l4.8 10.5 4.5-10.2zM62.7 69.6 58 59.1l-4.5 10.2.1.1h-.1l-.3.8h9.4l.1-.6zm6.1-14L64.1 45l-4.5 10.3 4.8 10.5 4.4-10.2zm12.4-28.2L78 20.3h-3.1l-3.1 7 4.7 10.6 4.7-10.5zM21.9 114h12.5v-6.2H21.9v6.2zm24.9-93.7h-3.1l1.5 3.2 1.6-3.2zm12.5 0h-3.1l1.5 3.4 1.6-3.4zm-8 16.8L56.1 27l-3-6.8H50l-3.2 6.6 4.5 10.3zm-7.8-10.3-2.9-6.5h-8.2L39 35.6l4.5-8.8zm75.1-6.5h-6.2l-3.1 7 3.7 8 5.6-15zm-71.8 81.2c-5.2 0-9.4 4.2-9.4 9.4s4.2 9.4 9.4 9.4 9.4-4.2 9.4-9.4-4.2-9.4-9.4-9.4zM59.3 114h25v-6.2h-25v6.2zM44.2 70.2H50l-9.7-23.9L24.1 7.8H0V14h20l20.6 53.1L21.9 89v6.2h96.8v12.5h-9.4v6.2h15.6V89H28.1l16.1-18.8zm52.6-49.9h-3.1l1.6 3.5 1.5-3.5zM64.1 37.9l4.6-10.5-3.1-7.1h-3.1l-3.2 6.8 4.8 10.8zm45.2-17.6h-3.1l1.6 3.5 1.5-3.5zm-3.1 7-3.2-7.1h-3.1l-3.1 7 4.7 10.6 4.7-10.5zm-34.4-7h-3.1l1.6 3.5 1.5-3.5zm21.9 7.1-3.1-7.1h-3.1l-3.1 7 4.7 10.6 4.6-10.5zm-9.4-7.1h-3.1l1.6 3.5 1.5-3.5zm12.5 81.2c-5.2 0-9.4 4.2-9.4 9.4s4.2 9.4 9.4 9.4 9.4-4.2 9.4-9.4c-.1-5.2-4.2-9.4-9.4-9.4z" id="icon_5_"/></g></svg>