<svg xmlns="http://www.w3.org/2000/svg" viewBox="0 0 512 512" style="enable-background:new 0 0 512 512" xml:space="preserve"><path style="fill:#76c1b3" d="M120.92 7.5h328.26v43.23H120.92z"/><path style="fill:#f5c350" d="M326.693 50.73h-69.41L214.053 7.5h69.42z"/><path style="fill:#e66480" d="M404.153 84.5h-238.2l-45.031-33.772h328.262z"/><path style="fill:#76c1b3" d="M120.92 296.92h328.26v43.23H120.92z"/><path style="fill:#e66480" d="M165.953 263.153h238.2l45.031 33.772H120.922z"/><path style="fill:#dd5478" d="M165.95 84.5h238.2v178.65h-238.2z"/><path style="fill:#76c1b3" d="M135.78 340.15h298.54V504.5H135.78z"/><path style="fill:#52a397" d="M135.78 475.63h298.54v28.866H135.78zM135.78 340.15h298.54v21.514H135.78z"/><path style="fill:#f5c350" d="M434.323 479.85v24.65h-88.93l-28.87-28.87-113.95-113.96-21.52-21.52h113.57l135.48 135.48z"/><path style="fill:#e5b045" d="M434.323 479.85v24.65h-88.93l-28.87-28.87h113.58zM316.143 361.67h-113.57l-21.52-21.52h113.57z"/><path style="fill:#f1e9c5" d="M191.16 106.79h187.78v134.07H191.16z"/><path style="fill:#f7f2df" d="M378.943 106.79v53.74l-80.34 80.33h-90.41l134.07-134.07z"/><path style="fill:#f5c350" d="m341.793 296.92-43.23 43.23h-66.82l43.23-43.23z"/><path d="M456.685 296.962v-.037a7.54 7.54 0 0 0-.075-1.003c-.01-.075-.022-.149-.034-.224a7.417 7.417 0 0 0-.621-1.985c-.027-.057-.053-.113-.082-.169a7.515 7.515 0 0 0-.522-.884c-.03-.043-.063-.083-.094-.126a7.572 7.572 0 0 0-.604-.732c-.037-.04-.071-.082-.11-.121a7.465 7.465 0 0 0-.784-.691c-.027-.021-.048-.046-.075-.066l-42.032-31.522V88.25l42.032-31.522c.027-.02.048-.046.075-.066.276-.213.54-.442.784-.691.038-.039.072-.081.11-.121.217-.231.418-.476.605-.733.031-.042.064-.082.093-.125a7.38 7.38 0 0 0 .604-1.054 7.41 7.41 0 0 0 .621-1.984c.012-.074.024-.148.034-.224a7.54 7.54 0 0 0 .075-1.003V7.5a7.5 7.5 0 0 0-7.5-7.5H120.922a7.5 7.5 0 0 0-7.5 7.5V50.728c0 .341.031.674.075 1.003.01.075.022.149.034.224.115.699.326 1.365.621 1.984.027.057.053.113.082.17.155.307.328.603.522.884.03.043.063.083.093.125.186.257.388.501.605.733.037.04.071.082.11.121.244.249.507.478.784.691.027.021.048.046.075.066l42.031 31.522v171.153l-42.031 31.522c-.027.02-.048.046-.075.066-.276.213-.54.442-.784.691-.038.039-.072.081-.11.121a7.572 7.572 0 0 0-.604.732c-.031.042-.064.083-.094.126a7.515 7.515 0 0 0-.604 1.053 7.405 7.405 0 0 0-.655 2.209 7.54 7.54 0 0 0-.075 1.003v43.227a7.5 7.5 0 0 0 7.5 7.5h7.36V504.5a7.5 7.5 0 0 0 7.5 7.5h298.542a7.5 7.5 0 0 0 7.5-7.5V347.652h7.36a7.5 7.5 0 0 0 7.5-7.5v-43.178l.001-.012zm-15 35.69H316.668l5.159-5.158a7.5 7.5 0 0 0 0-10.606 7.5 7.5 0 0 0-10.606-.001l-15.763 15.763H249.85l28.225-28.225h163.61v28.227zm-169.758 52.079v35.69l-72.765-72.769h92.357l29.579 29.579h-41.672a7.5 7.5 0 0 0-7.499 7.5zm-136.145-52.079h-7.36v-28.228h128.439l-28.225 28.225h-47.583l-.039.003h-45.232zM173.453 92h223.2v163.653h-223.2V92zm268.232-48.772H329.798L301.577 15h140.108v28.228zM280.366 15l28.221 28.228h-48.2L232.16 15h48.206zm-151.944 0h82.524l28.228 28.228H128.422V15zm128.822 43.228.039.002h69.41l.026-.002h99.965L401.653 77h-233.2l-25.031-18.772h113.822zm-88.791 212.425h233.2l25.031 18.771H341.89c-.033 0-.064-.005-.097-.005h-66.82c-.033 0-.066.004-.099.005H143.423l25.03-18.771zm-25.171 76.999h34.668l93.977 93.983V497H143.282V347.652zm143.645 108.985L327.287 497h-40.361v-40.363h.001zM348.5 497l-61.573-61.577v-43.191h49.172l60.554 60.554V497H348.5zm48.153-65.428-39.341-39.341h39.341v39.341zm15 65.428v-29.214l15.17 15.17V497h-15.17zm15.172-35.256-15.172-15.172v-61.841a7.5 7.5 0 0 0-7.5-7.5h-61.841l-29.579-29.579h114.092v114.092z"/><path d="M378.939 99.289H191.167a7.5 7.5 0 0 0-7.5 7.5v134.074a7.5 7.5 0 0 0 7.5 7.5h28.576c4.142 0 7.5-3.357 7.5-7.5s-3.358-7.5-7.5-7.5h-21.076V114.289h172.771v119.074H254c-4.142 0-7.5 3.357-7.5 7.5s3.358 7.5 7.5 7.5h124.939a7.5 7.5 0 0 0 7.5-7.5V106.789a7.5 7.5 0 0 0-7.5-7.5zM171.387 472.167h-10c-4.142 0-7.5 3.357-7.5 7.5s3.358 7.5 7.5 7.5h10c4.142 0 7.5-3.357 7.5-7.5s-3.358-7.5-7.5-7.5zM171.387 452.167h-10c-4.142 0-7.5 3.357-7.5 7.5s3.358 7.5 7.5 7.5h10c4.142 0 7.5-3.357 7.5-7.5s-3.358-7.5-7.5-7.5zM161.387 447.167h10c4.142 0 7.5-3.357 7.5-7.5s-3.358-7.5-7.5-7.5h-10c-4.142 0-7.5 3.357-7.5 7.5s3.358 7.5 7.5 7.5zM84.185 276.355h-21.37c-4.142 0-7.5 3.357-7.5 7.5s3.358 7.5 7.5 7.5h21.369c4.142 0 7.5-3.357 7.5-7.5s-3.357-7.5-7.499-7.5zM126.027 249.513v-21.368c0-4.143-3.358-7.5-7.5-7.5s-7.5 3.357-7.5 7.5v21.368a7.5 7.5 0 0 0 15 0zM85.29 240.012a7.501 7.501 0 0 0-10.606 10.607l15.264 15.264c1.464 1.464 3.384 2.196 5.303 2.196s3.839-.732 5.303-2.196a7.5 7.5 0 0 0 0-10.607L85.29 240.012z"/></svg>