<svg version="1.1" id="Layer_1" xmlns="http://www.w3.org/2000/svg" x="0" y="0" viewBox="0 0 64 64" style="enable-background:new 0 0 64 64" xml:space="preserve"><style>.st4{fill:#e88793}.st30{fill:none;stroke:#010101;stroke-width:2;stroke-miterlimit:10}</style><g id="Vector"><g id="dress"><path class="st4" d="M21.75 24.78c-1.57-3.56-3.79-9.63-1.38-11.07 0 0 4.29-6.09 3.74-11.91h3.05l4.71 9.97 5.4-9.97h3.05s-.83 9.97 3.05 11.91c0 0 2.93 3.4-.82 11.07h-20.8zM60.79 55.93s-31.15 14.12-57.59 0c0 0 9.27-21.29 18.94-27.96h20.28c3.9 4.32 17.78 20.22 18.37 27.96z"/><path d="M41.41 26.85s.37.4 1.01 1.11H22.14c.29-.2.57-.38.86-.55 0 0-.56-1.08-1.25-2.63h20.79c-.33.66-.7 1.35-1.13 2.07z" style="fill:#f7c0cd"/></g></g><g id="Line"><g id="dress_1_"><path class="st30" d="M21.75 24.78c-1.57-3.56-3.79-9.63-1.38-11.07 0 0 4.29-6.09 3.74-11.91h3.05l4.71 9.97 5.4-9.97h3.05s-.83 9.97 3.05 11.91c0 0 2.93 3.4-.82 11.07h-20.8zM60.79 55.93s-31.15 14.12-57.59 0c0 0 9.27-21.29 18.94-27.96h20.28c3.9 4.32 17.78 20.22 18.37 27.96zM41.41 26.85s.37.4 1.01 1.11H22.14c.29-.2.57-.38.86-.55 0 0-.56-1.08-1.25-2.63h20.79c-.33.66-.7 1.35-1.13 2.07z"/></g></g><path d="M41.61 26.85c.4-.72.75-1.42 1.05-2.08 3.52-7.67.77-11.07.77-11.07-3.64-1.93-2.86-11.9-2.86-11.9h-2.86c-.92 1.82-1.85 3.64-2.77 5.46.94 1.06 2.08 2.6 2.96 4.66 1.72 4.02 1.46 7.69 1.2 9.48-.13.8-.46 2.1-1.32 3.48a9.597 9.597 0 0 1-2.16 2.4c2.66 2.72 5.69 6.29 8.52 10.8a64.512 64.512 0 0 1 7.73 17.85s-10.9 5.26-25.04 6.14c5.94.29 14.04-.02 23.14-2.62 4.3-1.23 8.05-2.74 11.23-4.27-5.14-9.39-11.3-18.53-18.65-27.21-.31-.38-.62-.75-.94-1.12z" style="opacity:.3" id="shadow"/><g id="Highligth"><path d="M32.44 62.15c-7.85-.28-16.26-1.96-24.24-6.22 0 0 9.27-21.29 18.94-27.96.29-.2.57-.38.86-.55 0 0-.56-1.08-1.25-2.63-1.57-3.56-3.79-9.63-1.38-11.07.49-.63 1.01-1.45 1.44-2.45 1.14-2.66.97-5.13.77-6.42-.14-1.01-.28-2.02-.43-3.04H24.1c.55 5.81-3.74 11.91-3.74 11.91-2.41 1.44-.19 7.52 1.38 11.07.69 1.55 1.25 2.63 1.25 2.63-.29.17-.57.35-.86.55-9.65 6.67-18.92 27.96-18.92 27.96 9.7 5.18 20.03 6.55 29.23 6.22z" style="opacity:.3;fill:#fff"/></g></svg>