<svg version="1.1" id="Layer_1" xmlns="http://www.w3.org/2000/svg" x="0" y="0" viewBox="0 0 256 256" style="enable-background:new 0 0 256 256" xml:space="preserve"><style>.st1{fill:#afafaf}.st2{fill:#72c2e9}.st3{fill:#fff}.st6{fill:#f0c020}</style><path class="st1" d="M230.902 216.625H25.098v-8.969a5 5 0 0 1 5-5h195.804a5 5 0 0 1 5 5v8.969z"/><path class="st2" d="M244.667 250.125H11.333a5 5 0 0 1-5-5v-23.5a5 5 0 0 1 5-5h233.333a5 5 0 0 1 5 5v23.5a4.999 4.999 0 0 1-4.999 5z"/><circle class="st3" cx="27.47" cy="233.5" r="6.136"/><circle class="st3" cx="60.98" cy="233.5" r="6.136"/><circle class="st3" cx="94.49" cy="233.5" r="6.136"/><circle class="st3" cx="128" cy="233.5" r="6.136"/><circle class="st3" cx="161.51" cy="233.5" r="6.136"/><circle class="st3" cx="195.02" cy="233.5" r="6.136"/><circle class="st3" cx="228.53" cy="233.5" r="6.136"/><path style="fill:#fc5d3d" d="M149.96 57.607h-43.92l-5.394-18.232h54.708z"/><path class="st1" d="M141.135 57.607h-26.27v13.032a4.105 4.105 0 0 0 4.105 4.105h18.061a4.105 4.105 0 0 0 4.105-4.105V57.607z"/><path class="st2" d="M244.667 39.375H11.333a5 5 0 0 1-5-5v-23.5a5 5 0 0 1 5-5h233.333a5 5 0 0 1 5 5v23.5a4.999 4.999 0 0 1-4.999 5z"/><circle class="st3" cx="60.98" cy="22.75" r="6.136"/><circle class="st3" cx="94.49" cy="22.75" r="6.136"/><circle class="st3" cx="128" cy="22.75" r="6.136"/><circle class="st3" cx="161.51" cy="22.75" r="6.136"/><circle class="st3" cx="195.02" cy="22.75" r="6.136"/><circle class="st3" cx="228.53" cy="22.75" r="6.136"/><circle class="st3" cx="27.47" cy="22.75" r="6.136"/><path class="st2" d="M128 189.667 174.965 128l-17.939-27.667H98.974L81.035 128z"/><path d="M127.854 173.354a2.5 2.5 0 0 1-.474-3.504l32.312-42.427-9.459-14.59h-17.825a2.5 2.5 0 1 1 0-5h19.184a2.5 2.5 0 0 1 2.098 1.14l11.155 17.205c.574.886.53 2.036-.108 2.875l-33.378 43.826a2.503 2.503 0 0 1-3.505.475zm-5.446-60.521h-18a2.5 2.5 0 1 1 0-5h18a2.5 2.5 0 1 1 0 5z" style="fill:#c5e5fe"/><path class="st6" d="M195.755 93.591c-3.501-1.157-7.117-2.168-9.147-10.913-1.87 8.055-4.865 9.498-9.147 10.913 6.984 2.308 8.037 6.129 9.147 10.913 1.913-8.247 5.078-9.568 9.147-10.913zM83.318 169.232c-3.501-1.157-7.117-2.168-9.147-10.913-1.87 8.055-4.866 9.498-9.147 10.913 6.984 2.308 8.037 6.129 9.147 10.913 1.913-8.248 5.079-9.569 9.147-10.913zM215.096 123.302c-3.501-1.157-7.117-2.168-9.147-10.913-1.87 8.055-4.865 9.498-9.147 10.913 6.984 2.308 8.037 6.129 9.147 10.913 1.913-8.247 5.078-9.568 9.147-10.913z"/><path d="M27.47 224.863c-4.762 0-8.636 3.874-8.636 8.637s3.874 8.637 8.636 8.637 8.636-3.874 8.636-8.637-3.874-8.637-8.636-8.637zm0 12.274c-2.005 0-3.636-1.632-3.636-3.637s1.631-3.637 3.636-3.637 3.636 1.632 3.636 3.637-1.631 3.637-3.636 3.637zM60.98 224.863c-4.762 0-8.637 3.874-8.637 8.637s3.875 8.637 8.637 8.637 8.636-3.874 8.636-8.637-3.874-8.637-8.636-8.637zm0 12.274c-2.005 0-3.637-1.632-3.637-3.637s1.631-3.637 3.637-3.637c2.005 0 3.636 1.632 3.636 3.637s-1.631 3.637-3.636 3.637zM94.49 224.863c-4.762 0-8.636 3.874-8.636 8.637s3.874 8.637 8.636 8.637 8.637-3.874 8.637-8.637-3.875-8.637-8.637-8.637zm0 12.274c-2.005 0-3.636-1.632-3.636-3.637s1.631-3.637 3.636-3.637 3.637 1.632 3.637 3.637-1.632 3.637-3.637 3.637zM128 224.863c-4.762 0-8.636 3.874-8.636 8.637s3.874 8.637 8.636 8.637c4.763 0 8.637-3.874 8.637-8.637s-3.874-8.637-8.637-8.637zm0 12.274c-2.005 0-3.636-1.632-3.636-3.637s1.631-3.637 3.636-3.637 3.637 1.632 3.637 3.637-1.632 3.637-3.637 3.637zM161.51 224.863c-4.762 0-8.636 3.874-8.636 8.637s3.874 8.637 8.636 8.637c4.763 0 8.637-3.874 8.637-8.637s-3.875-8.637-8.637-8.637zm0 12.274c-2.005 0-3.636-1.632-3.636-3.637s1.631-3.637 3.636-3.637 3.637 1.632 3.637 3.637-1.632 3.637-3.637 3.637zM195.021 224.863c-4.763 0-8.637 3.874-8.637 8.637s3.874 8.637 8.637 8.637c4.762 0 8.636-3.874 8.636-8.637s-3.875-8.637-8.636-8.637zm0 12.274c-2.005 0-3.637-1.632-3.637-3.637s1.632-3.637 3.637-3.637 3.636 1.632 3.636 3.637-1.632 3.637-3.636 3.637zM228.53 224.863c-4.763 0-8.637 3.874-8.637 8.637s3.874 8.637 8.637 8.637 8.637-3.874 8.637-8.637-3.874-8.637-8.637-8.637zm0 12.274c-2.005 0-3.637-1.632-3.637-3.637s1.632-3.637 3.637-3.637 3.637 1.632 3.637 3.637-1.632 3.637-3.637 3.637z"/><path d="M244.667 214.125h-11.268v-6.465c0-4.141-3.359-7.5-7.5-7.5h-9.43a2.5 2.5 0 0 0-2.5 2.5c0 1.37 1.12 2.5 2.5 2.5h9.43a2.5 2.5 0 0 1 2.5 2.5v6.46H27.6v-6.46a2.5 2.5 0 0 1 2.5-2.5h166.37c1.38 0 2.5-1.13 2.5-2.5a2.5 2.5 0 0 0-2.5-2.5H30.1c-4.14 0-7.5 3.359-7.5 7.5v6.465H11.333c-4.136 0-7.5 3.364-7.5 7.5v23.5c0 4.136 3.364 7.5 7.5 7.5h233.333c4.136 0 7.5-3.364 7.5-7.5v-23.5c.001-4.136-3.363-7.5-7.499-7.5zm2.5 31c0 1.379-1.121 2.5-2.5 2.5H11.333a2.503 2.503 0 0 1-2.5-2.5v-23.5c0-1.379 1.122-2.5 2.5-2.5h233.333c1.379 0 2.5 1.121 2.5 2.5v23.5z"/><circle cx="206.47" cy="202.66" r="2.5"/><path d="M60.98 31.387c4.762 0 8.636-3.874 8.636-8.637s-3.874-8.637-8.636-8.637-8.637 3.874-8.637 8.637 3.875 8.637 8.637 8.637zm0-12.274c2.005 0 3.636 1.632 3.636 3.637s-1.631 3.637-3.636 3.637-3.637-1.632-3.637-3.637 1.632-3.637 3.637-3.637zM103.126 22.75c0-4.763-3.875-8.637-8.637-8.637s-8.636 3.874-8.636 8.637 3.874 8.637 8.636 8.637 8.637-3.874 8.637-8.637zm-12.272 0a3.64 3.64 0 0 1 3.636-3.637c2.005 0 3.637 1.632 3.637 3.637s-1.631 3.637-3.637 3.637a3.64 3.64 0 0 1-3.636-3.637zM136.637 22.75c0-4.763-3.874-8.637-8.637-8.637-4.762 0-8.636 3.874-8.636 8.637s3.874 8.637 8.636 8.637c4.763 0 8.637-3.874 8.637-8.637zm-12.273 0c0-2.005 1.631-3.637 3.636-3.637s3.637 1.632 3.637 3.637-1.632 3.637-3.637 3.637-3.636-1.632-3.636-3.637zM161.51 31.387c4.763 0 8.637-3.874 8.637-8.637s-3.874-8.637-8.637-8.637c-4.762 0-8.636 3.874-8.636 8.637s3.874 8.637 8.636 8.637zm0-12.274c2.005 0 3.637 1.632 3.637 3.637s-1.632 3.637-3.637 3.637-3.636-1.632-3.636-3.637 1.631-3.637 3.636-3.637zM203.656 22.75c0-4.763-3.874-8.637-8.636-8.637-4.763 0-8.637 3.874-8.637 8.637s3.874 8.637 8.637 8.637c4.762 0 8.636-3.874 8.636-8.637zm-12.272 0c0-2.005 1.632-3.637 3.637-3.637s3.636 1.632 3.636 3.637-1.631 3.637-3.636 3.637-3.637-1.632-3.637-3.637zM237.167 22.75c0-4.763-3.874-8.637-8.637-8.637s-8.637 3.874-8.637 8.637 3.874 8.637 8.637 8.637 8.637-3.874 8.637-8.637zm-12.273 0c0-2.005 1.632-3.637 3.637-3.637s3.637 1.632 3.637 3.637-1.632 3.637-3.637 3.637-3.637-1.632-3.637-3.637zM47.17 39.38a2.5 2.5 0 0 0-5 0c0 1.37 1.12 2.49 2.5 2.49s2.5-1.12 2.5-2.49z"/><path d="M244.67 3.38H11.33c-4.13 0-7.49 3.36-7.5 7.5v23.5c.01 4.13 3.37 7.49 7.5 7.49h23.34c1.38 0 2.5-1.12 2.5-2.49a2.5 2.5 0 0 0-2.5-2.5H11.33a2.527 2.527 0 0 1-2.5-2.5v-23.5a2.53 2.53 0 0 1 2.5-2.51h233.34a2.53 2.53 0 0 1 2.5 2.51v23.5a2.527 2.527 0 0 1-2.5 2.5h-190a2.5 2.5 0 0 0-2.5 2.5c0 1.37 1.12 2.5 2.5 2.5l44.11-.002 4.863 16.438a2.499 2.499 0 0 0 2.397 1.791h6.325v10.532a6.611 6.611 0 0 0 6.604 6.604h6.53v7.967a2.5 2.5 0 1 0 5 0v-7.967h6.53a6.611 6.611 0 0 0 6.604-6.604V60.106h6.325a2.5 2.5 0 0 0 2.397-1.791l4.864-16.441 87.449-.004c4.13 0 7.5-3.36 7.5-7.49v-23.5c.002-4.14-3.368-7.5-7.498-7.5zM138.635 70.639c0 .885-.72 1.604-1.604 1.604H118.97c-.885 0-1.604-.72-1.604-1.604V60.106h21.27v10.533zm13.372-28.764-3.914 13.231h-40.185l-3.914-13.229 48.013-.002z"/><path d="M134.5 51.241a2.5 2.5 0 0 0 2.5-2.5v-.5a2.5 2.5 0 1 0-5 0v.5a2.5 2.5 0 0 0 2.5 2.5zM143.417 51.241a2.5 2.5 0 0 0 2.5-2.5v-.5a2.5 2.5 0 1 0-5 0v.5a2.5 2.5 0 0 0 2.5 2.5zM112 50.741h13.375a2.5 2.5 0 1 0 0-5H112a2.5 2.5 0 1 0 0 5zM18.833 22.75c0 4.763 3.874 8.637 8.636 8.637s8.636-3.874 8.636-8.637-3.874-8.637-8.636-8.637-8.636 3.874-8.636 8.637zm12.273 0c0 2.005-1.631 3.637-3.636 3.637s-3.636-1.632-3.636-3.637 1.631-3.637 3.636-3.637 3.636 1.632 3.636 3.637zM157.02 97.83H98.98c-.84 0-1.65.439-2.1 1.14l-17.906 27.618c-.626.903-.554 2.104.076 2.932l11.2 14.7c.81 1.061 2.43 1.29 3.5.47a2.495 2.495 0 0 0 .47-3.5l-8.136-10.69h21.395l14.115 46.628L106.34 157.1c-.81-1.06-2.44-1.29-3.5-.47-1.11.823-1.309 2.391-.48 3.49v.01l23.65 31.05c.975 1.296 2.988 1.317 3.98 0l46.96-61.66c.626-.82.701-2.03.075-2.932L159.12 98.97a2.488 2.488 0 0 0-2.1-1.14zm13.347 27.67h-21.762l-5.843-22.67h12.907l14.698 22.67zM137.6 102.833l5.842 22.667H112.56l5.842-22.667H137.6zm32.315 27.667-35.505 46.623 14.113-46.623h21.392zm-69.585-27.67h12.909l-5.843 22.67H85.633l14.697-22.67zm42.969 27.67-15.298 50.538-15.298-50.538h30.596z"/><path d="M96.78 148.67a2.504 2.504 0 0 0-.47 3.51c.825 1.089 2.382 1.308 3.5.47 1.09-.84 1.31-2.409.47-3.5-.81-1.07-2.43-1.291-3.5-.48zM196.539 91.217c-3.283-1.076-5.799-1.795-7.497-9.104-.597-2.573-4.275-2.566-4.87 0-1.667 7.179-3.986 7.945-7.496 9.104-2.279.753-2.284 3.993 0 4.748 5.831 1.927 6.493 4.782 7.496 9.104.599 2.578 4.272 2.578 4.871 0 1.665-7.178 3.985-7.944 7.496-9.104 2.279-.752 2.284-3.993 0-4.748zm-9.888 6.022c-.799-1.289-1.882-2.51-3.413-3.593 1.258-.897 2.392-2.088 3.377-3.793.992 1.721 2.105 2.902 3.256 3.759-1.193.871-2.274 2.018-3.22 3.627zM71.736 157.753c-1.667 7.179-3.986 7.945-7.496 9.104-2.279.753-2.284 3.993 0 4.748 5.831 1.927 6.493 4.782 7.496 9.104.599 2.578 4.272 2.578 4.871 0 1.665-7.178 3.985-7.944 7.496-9.104 2.279-.753 2.284-3.994 0-4.748-3.283-1.076-5.799-1.795-7.497-9.104-.597-2.573-4.275-2.565-4.87 0zm2.479 15.126c-.799-1.289-1.882-2.51-3.413-3.593 1.258-.897 2.392-2.088 3.377-3.793.992 1.721 2.105 2.902 3.256 3.759-1.194.872-2.274 2.018-3.22 3.627zM215.88 125.676c2.279-.752 2.284-3.994 0-4.748-3.283-1.076-5.799-1.795-7.497-9.104-.597-2.573-4.275-2.566-4.87 0-1.667 7.179-3.986 7.945-7.496 9.104-2.279.753-2.284 3.993 0 4.748 5.831 1.927 6.493 4.782 7.496 9.104.599 2.578 4.272 2.578 4.871 0 1.665-7.177 3.985-7.944 7.496-9.104zm-9.888 1.274c-.799-1.289-1.882-2.51-3.413-3.593 1.258-.897 2.392-2.088 3.377-3.793.992 1.721 2.105 2.902 3.256 3.759-1.193.871-2.274 2.018-3.22 3.627z"/></svg>