<svg xmlns="http://www.w3.org/2000/svg" viewBox="0 0 64 64" xml:space="preserve" style="fill-rule:evenodd;clip-rule:evenodd;stroke-linecap:round;stroke-linejoin:round;stroke-miterlimit:2"><path d="M28 42.825c-8.826-.866-15.732-8.318-15.732-17.37C12.268 15.821 20.089 8 29.722 8c9.634 0 17.455 7.821 17.455 17.455 0 3.412-.981 6.597-2.677 9.287" style="fill:none;stroke:#222a33;stroke-width:1.5px"/><path d="m22.522 40 2.36-3.146A3.692 3.692 0 0 0 25 32.59l-.61-.916a3.327 3.327 0 0 1-.559-1.845v-.001a3.56 3.56 0 0 0-2.861-3.491l-1.185-.237a3.693 3.693 0 0 1-2.918-3.014l-.236-1.413M34.945 24a2.778 2.778 0 1 1 2.777-2.777M20.995 15.986a25.284 25.284 0 0 1 2.836-2.168" style="fill:none;stroke:#222a33;stroke-width:1.5px"/><circle cx="41.359" cy="42.909" r="8.727" style="fill:none;stroke:#222a33;stroke-width:1.5px"/><path d="M46.182 50.182 52 56" style="fill:none;stroke:#222a33;stroke-width:1.5px"/></svg>